# xmcd CD database file
# Copyright (C) 1997 Ti Kan
#
# Track frame offsets:
#  150
#  17922
#  29562
#  40475
#  57580
#  74840
#  89787
#  106700
#  124932
#  138402
#
# Disc length: 2004 seconds
#
# Revision: 1
# Processed by: cddbd v1.4b41PL1 Copyright (c) Steve Scherf et al.
# Submitted via: CDWizzard Release:4.32
#
DISCID=9c07d20a
DTITLE=Ray Stevens - Lend Me Your Ears
DYEAR=1900
DGENRE=
TTITLE0=Sittin' Up With The Dead
TTITLE1=Jack Daniels, You Lied To Me Again
TTITLE2=Help Me Make It Through The Night
TTITLE3=Used Cars
TTITLE4=Bwana And The Jungle Girl
TTITLE5=Barbeque
TTITLE6=Where Do My Socks Go
TTITLE7=This Ain't Exactly What I Had In Mind
TTITLE8=This Is Your Daddy's Oldsmobile
TTITLE9=Cletus Mchicks And His Band From The Sticks
EXTD=
EXTT0=
EXTT1=
EXTT2=
EXTT3=
EXTT4=
EXTT5=
EXTT6=
EXTT7=
EXTT8=
EXTT9=
PLAYORDER=
